# xmcd
#
# Track frame offsets: 
#        150
#        13730
#        25861
#        42698
#        58666
#        75612
#        95147
#        113269
#        123559
#        136889
#
# Disc length: 1980 seconds
#
# Revision: 0
# Processed by: cddbd v1.5.2PL0 Copyright (c) Steve Scherf et al.
# Submitted via: ExactAudioCopyFreeDBPlugin 1.0
#
DISCID=8107ba0a
DTITLE=Godforbid - Jesus Chrysler
DYEAR=2018
DGENRE=Hip-Hop
TTITLE0=Previous Behavior (prod. Louis Mackey)
TTITLE1=Brother (prod. DJ7L)
TTITLE2=The Problem (prod. Louis Mackey)
TTITLE3=Black Elk (prod. Dr. Quandary)
TTITLE4=Where the Lonely Go (prod. Louis Mackey)
TTITLE5=Dance Like Your Body's On Fire Feat. Esoteric (prod. Louis Mac
TTITLE5=key)
TTITLE6=Try (prod. Dr. Quandary)
TTITLE7=Strange Days (prod. DJ 7L)
TTITLE8=Chrome (prod. Louis Mackey)
TTITLE9=Night Nurse (prod. Louis Mackey)
EXTD=
EXTT0=
EXTT1=
EXTT2=
EXTT3=
EXTT4=
EXTT5=
EXTT6=
EXTT7=
EXTT8=
EXTT9=
PLAYORDER=
